<svg height="480pt" viewBox="0 0 480 480.00054" width="480pt" xmlns="http://www.w3.org/2000/svg" xmlns:xlink="http://www.w3.org/1999/xlink"><linearGradient id="a"><stop offset="0" stop-color="#fff33b"/><stop offset=".014" stop-color="#fee72e"/><stop offset=".042" stop-color="#fed51b"/><stop offset=".07" stop-color="#fdca10"/><stop offset=".1" stop-color="#fdc70c"/><stop offset=".4" stop-color="#f3903f"/><stop offset=".8" stop-color="#ed683c"/><stop offset="1" stop-color="#e93e3a"/></linearGradient><linearGradient id="b" gradientUnits="userSpaceOnUse" x1="240.00027" x2="240.00027" xlink:href="#a" y1="-23.999999" y2="536.000001"/><linearGradient id="c" gradientUnits="userSpaceOnUse" x1="136.00027" x2="136.00027" xlink:href="#a" y1="-23.999999" y2="536.000001"/><linearGradient id="d" gradientUnits="userSpaceOnUse" x1="344.00027" x2="344.00027" xlink:href="#a" y1="-23.999999" y2="536.000001"/><path d="m360 128c-13.960938.117188-27.6875 3.617188-40 10.199219-14.363281-10.546875-30.679688-18.144531-48-22.34375v-21.214844c-.003906-13.648437 3.1875-27.109375 9.320312-39.304687l21.839844-43.761719c1.238282-2.480469 1.105469-5.425781-.351562-7.78125-1.460938-2.359375-4.035156-3.792969-6.808594-3.792969h-28.238281c-15.121094.101562-28.921875 8.636719-35.761719 22.121094l-12.976562 26.03125c-7.25 14.421875-11.027344 30.34375-11.023438 46.488281v21.214844c-17.320312 4.199219-33.636719 11.796875-48 22.34375-12.3125-6.582031-26.039062-10.082031-40-10.199219-66.167969 0-120 78.953125-120 176s53.832031 176 120 176c18.996094-.273438 37.425781-6.496094 52.695312-17.792969 41.734376 23.722657 92.875 23.722657 134.609376 0 15.273437 11.296875 33.703124 17.519531 52.695312 17.792969 66.167969 0 120-78.953125 120-176s-53.832031-176-120-176zm-136-33.359375c-.003906-13.65625 3.191406-27.121094 9.328125-39.320313l12.9375-26.039062c4.113281-8.101562 12.410156-13.226562 21.496094-13.28125h15.300781l-16.039062 32.152344c-7.25 14.421875-11.027344 30.34375-11.023438 46.488281v18.320313c-10.628906-1.28125-21.371094-1.28125-32 0zm136 369.359375c-13.589844-.117188-26.871094-4.074219-38.3125-11.414062 6.097656-4.550782 11.808594-9.59375 17.074219-15.082032 3.039062-3.207031 2.902343-8.273437-.304688-11.3125-3.207031-3.039062-8.273437-2.902344-11.3125.304688-22.664062 23.941406-54.179687 37.5-87.144531 37.5s-64.480469-13.558594-87.144531-37.5c-3.039063-3.207032-8.105469-3.34375-11.3125-.304688-3.207031 3.039063-3.34375 8.105469-.300781 11.3125 5.265624 5.484375 10.976562 10.527344 17.070312 15.082032-11.441406 7.335937-24.722656 11.292968-38.3125 11.414062-57.34375 0-104-71.777344-104-160s46.65625-160 104-160c9.097656.046875 18.101562 1.890625 26.488281 5.414062-4.523437 4.246094-8.753906 8.789063-12.664062 13.601563-1.851563 2.222656-2.359375 5.273437-1.328125 7.976563 1.035156 2.703124 3.445312 4.636718 6.308594 5.058593 2.863281.421875 5.730468-.734375 7.5-3.027343 5.628906-7.027344 12.027343-13.40625 19.070312-19.015626l.226562-.175781c43.625-34.429687 105.175782-34.429687 148.796876 0l.234374.175781c7.050782 5.617188 13.449219 12.003907 19.078126 19.039063 2.761718 3.453125 7.796874 4.011719 11.25 1.25 3.449218-2.761719 4.007812-7.796875 1.246093-11.25-3.921875-4.8125-8.164062-9.355469-12.695312-13.597656 8.386719-3.539063 17.386719-5.390625 26.488281-5.449219 57.34375 0 104 71.777344 104 160s-46.65625 160-104 160zm0 0" fill="url(#b)"/><path d="m100.511719 291.34375c2.574219 2.113281 6.1875 2.410156 9.074219.746094l7.476562-4.320313-1.214844 4.527344c-1.140625 4.265625 1.390625 8.648437 5.65625 9.792969 25.496094 6.847656 52.3125-5.035156 64.359375-28.523438 12.050781-23.484375 6.0625-52.199218-14.375-68.910156-2.574219-2.113281-6.1875-2.410156-9.070312-.746094l-7.480469 4.320313 1.214844-4.527344c1.140625-4.265625-1.390625-8.648437-5.65625-9.792969-29.871094-8.003906-60.578125 9.722656-68.582032 39.59375-5.675781 21.257813 1.59375 43.875 18.597657 57.839844zm-3.152344-53.695312c4.933594-18.355469 22.082031-30.71875 41.058594-29.601563l-3.929688 14.679687c-.835937 3.125.292969 6.445313 2.855469 8.414063 2.566406 1.96875 6.0625 2.199219 8.863281.585937l19.082031-11.007812c11.160157 11.972656 13.902344 29.539062 6.917969 44.34375s-22.285156 23.859375-38.621093 22.859375l3.925781-14.683594c.835937-3.121093-.289063-6.441406-2.855469-8.410156-2.5625-1.96875-6.0625-2.203125-8.863281-.589844l-19.082031 11.007813c-9.359376-10.097656-12.890626-24.289063-9.351563-37.597656zm0 0" fill="url(#c)"/><path d="m316 296.488281c12.847656 7.460938 28.144531 9.476563 42.488281 5.601563 4.265625-1.144532 6.796875-5.527344 5.65625-9.792969l-1.214843-4.527344 7.480468 4.320313c2.882813 1.664062 6.496094 1.367187 9.070313-.746094 20.433593-16.710938 26.425781-45.425781 14.375-68.910156-12.050781-23.488282-38.867188-35.371094-64.359375-28.523438-4.265625 1.144532-6.796875 5.527344-5.65625 9.792969l1.214844 4.527344-7.476563-4.320313c-2.886719-1.664062-6.5-1.367187-9.074219.746094-14.230468 11.652344-21.828125 29.550781-20.332031 47.882812 1.496094 18.328126 11.898437 34.757813 27.828125 43.949219zm-1.296875-75.753906 19.082031 11.007813c2.800782 1.613281 6.296875 1.382812 8.863282-.585938 2.5625-1.96875 3.691406-5.289062 2.855468-8.414062l-3.902344-14.679688c16.335938-1 31.636719 8.054688 38.621094 22.859375s4.242188 32.367187-6.917968 44.34375l-19.082032-11.007813c-2.800781-1.613281-6.296875-1.382812-8.863281.585938-2.5625 1.96875-3.691406 5.289062-2.855469 8.414062l3.929688 14.679688c-16.339844 1-31.636719-8.054688-38.621094-22.859375s-4.246094-32.367187 6.914062-44.34375zm0 0" fill="url(#d)"/><path d="m436.34375 318.976562c-.953125-2.140624-2.800781-3.753906-5.050781-4.414062-2.25-.664062-4.675781-.304688-6.636719.980469-20.425781 13.394531-58.511719 24.601562-104.519531 30.769531-2.277344.304688-4.316407 1.578125-5.589844 3.488281-1.277344 1.914063-1.667969 4.28125-1.074219 6.503907l2.398438 9.078124-15.503906 4.167969-3.695313-13.855469c-.996094-3.730468-4.511719-6.214843-8.359375-5.910156-32.289062 2.535156-64.710938 2.878906-97.046875 1.03125-3.808594-.28125-7.269531 2.210938-8.210937 5.910156l-3.4375 12.800782-15.503907-4.167969 1.917969-7.152344c.609375-2.257812.195312-4.671875-1.128906-6.601562-1.320313-1.929688-3.421875-3.183594-5.75-3.429688-36.820313-2.878906-72.960938-11.519531-107.105469-25.601562-2.175781-1.027344-4.703125-1.023438-6.875.019531-2.175781 1.042969-3.761719 3.007812-4.324219 5.351562-.605468 2.640626-.890625 5.34375-.847656 8.054688 0 46.078125 77.855469 83.558594 181.472656 87.59375 2.4375.8125 5.121094.402344 7.207032-1.101562 2.085937-1.503907 3.320312-3.921876 3.320312-6.492188v-16h16v16c0 2.570312 1.234375 4.988281 3.320312 6.492188 2.085938 1.503906 4.769532 1.914062 7.207032 1.101562 103.617187-4.035156 181.472656-41.515625 181.472656-87.59375-.003906-5.867188-1.25-11.671875-3.65625-17.023438zm-172.34375 88.351563v-15.328125c0-4.417969-3.582031-8-8-8h-32c-4.417969 0-8 3.582031-8 8v15.328125c-83.886719-4.464844-151.839844-32.558594-159.320312-65.335937 29.542968 10.671874 60.265624 17.742187 91.503906 21.054687l-1.597656 5.914063c-1.152344 4.265624 1.378906 8.660156 5.644531 9.808593l30.960937 8.320313c2.050782.550781 4.238282.265625 6.078125-.796875 1.839844-1.058594 3.179688-2.808594 3.730469-4.859375l3.832031-14.289063c28.695313 1.382813 57.445313 1.078125 86.105469-.914062l4.046875 15.203125c.546875 2.050781 1.890625 3.800781 3.730469 4.863281s4.027344 1.351563 6.078125.800781l30.960937-8.320312c4.257813-1.148438 6.785156-5.53125 5.644532-9.792969l-2.148438-8.089844c32.09375-3.875 63.375-12.78125 92.695312-26.398437 0 .511718.046876 1.023437.046876 1.542968.007812 35.242188-71.03125 66.554688-159.992188 71.289063zm0 0" fill="url(#b)"/></svg>